<mxfile host="app.diagrams.net">
  <diagram name="Enhanced Data Flow V2" id="enhanced2">
    <mxGraphModel dx="1200" dy="1200" grid="1" gridSize="10" guides="1" tooltips="1" connect="1" arrows="1" fold="1" page="1" pageScale="1" pageWidth="827" pageHeight="1169" math="0" shadow="0">
      <root>
        <mxCell id="0" />
        <mxCell id="1" parent="0" />

        <!-- Group 1: UAT Environment -->
        <mxCell id="uat_group" value="UAT Environment (Server Name)" style="rounded=1;fillColor=#E1EAF7;strokeColor=#6C8EBF;shadow=1;fontSize=14;" vertex="1" parent="1">
          <mxGeometry x="20" y="20" width="300" height="400" as="geometry" />
        </mxCell>
        <mxCell id="swagger" value="Swagger UI (Endpoints)" style="shape=ellipse;fillColor=#CDEB8B;strokeColor=#82B366;shadow=1;" vertex="1" parent="1">
          <mxGeometry x="40" y="60" width="120" height="60" as="geometry" />
        </mxCell>
        <mxCell id="files" value="Test Files (CSV, TXT, XLSX)" style="shape=rectangle;fillColor=#F8CECC;strokeColor=#B85450;shadow=1;" vertex="1" parent="1">
          <mxGeometry x="40" y="150" width="200" height="60" as="geometry" />
        </mxCell>

        <!-- Group 2: GENIE Framework -->
        <mxCell id="genie_group" value="GENIE Framework (Java Project)" style="rounded=1;fillColor=#DAE8FC;strokeColor=#6C8EBF;shadow=1;fontSize=14;" vertex="1" parent="1">
          <mxGeometry x="350" y="20" width="300" height="400" as="geometry" />
        </mxCell>
        <mxCell id="feature_snow" value="SNOW.feature (13 endpoints)" style="rounded=1;fillColor=#D5E8D4;strokeColor=#82B366;shadow=1;" vertex="1" parent="1">
          <mxGeometry x="380" y="60" width="200" height="50" as="geometry" />
        </mxCell>
        <mxCell id="feature_vault" value="HashiCorp.feature (5 endpoints)" style="rounded=1;fillColor=#D5E8D4;strokeColor=#82B366;shadow=1;" vertex="1" parent="1">
          <mxGeometry x="380" y="120" width="200" height="50" as="geometry" />
        </mxCell>
        <mxCell id="feature_generic" value="Generic.feature (Oracle/Unix/Other)" style="rounded=1;fillColor=#D5E8D4;strokeColor=#82B366;shadow=1;" vertex="1" parent="1">
          <mxGeometry x="380" y="180" width="200" height="50" as="geometry" />
        </mxCell>

        <!-- Group 3: Azure DevOps -->
        <mxCell id="devops_group" value="Azure DevOps Pipeline" style="rounded=1;fillColor=#FFE6CC;strokeColor=#D79B00;shadow=1;fontSize=14;" vertex="1" parent="1">
          <mxGeometry x="700" y="20" width="300" height="400" as="geometry" />
        </mxCell>
        <mxCell id="report" value="GENIE HTML Report" style="shape=cylinder;fillColor=#FFE6CC;strokeColor=#D79B00;shadow=1;" vertex="1" parent="1">
          <mxGeometry x="750" y="150" width="160" height="80" as="geometry" />
        </mxCell>

        <!-- Arrows -->
        <mxCell id="arrow1" style="edgeStyle=elbowEdgeStyle;endArrow=blockThin;strokeColor=#000000;" edge="1" parent="1" source="swagger" target="feature_snow">
          <mxGeometry relative="1" as="geometry" />
        </mxCell>
        <mxCell id="arrow2" style="edgeStyle=elbowEdgeStyle;endArrow=blockThin;strokeColor=#000000;" edge="1" parent="1" source="files" target="feature_generic">
          <mxGeometry relative="1" as="geometry" />
        </mxCell>

      </root>
    </mxGraphModel>
  </diagram>
</mxfile>